<?xml version="1.0" encoding="utf-8"?>
<!-- Generator: Adobe Illustrator 22.1.0, SVG Export Plug-In . SVG Version: 6.00 Build 0)  -->
<svg version="1.1" id="Capa_1" xmlns="http://www.w3.org/2000/svg" xmlns:xlink="http://www.w3.org/1999/xlink" x="0px" y="0px"
	 viewBox="0 0 64 64" style="enable-background:new 0 0 64 64;" xml:space="preserve">
<style type="text/css">
	.st0{fill:#010202;}
</style>
<path class="st0" d="M58.4,18.2l-10.8-6.3c-0.1,0.4-0.6,2,0.6,4.5c1.4,2.9-0.3,5-0.3,5s-1.1,1.4-4,1.7c-2.3,0.2-4.8-1-5.7-1.4l0,0
	c0,0-0.1,0-0.2-0.1C38,21.6,38,21.6,38,21.6l0,0c-0.8-0.5-3.1-2.1-4-4.3c-1.1-2.6-0.4-4.3-0.4-4.3s1-2.5,4.3-2.7
	c2.8-0.2,4-1.4,4.2-1.7L31.2,2.3c-4.6-2.7-10.4-1.1-13.1,3.4L11.6,17c0.4,0.1,2,0.6,4.5-0.6c2.9-1.4,5,0.3,5,0.3s1.4,1.1,1.7,4
	c0.2,2.3-1,4.8-1.4,5.7l0,0c0,0,0,0.1-0.1,0.2c-0.1,0.1-0.1,0.2-0.1,0.2l0,0c-0.5,0.8-2.1,3.1-4.3,4c-2.6,1.1-4.3,0.4-4.3,0.4
	s-2.5-1-2.7-4.3c-0.2-2.8-1.4-4-1.7-4.2L2.2,32.9C-0.4,37.5,1.1,43.3,5.6,46l10.8,6.3c0.1-0.4,0.6-2-0.6-4.5c-1.4-2.9,0.3-5,0.3-5
	s1.1-1.4,4-1.7c2.3-0.2,4.8,1,5.7,1.4l0,0c0,0,0.1,0,0.2,0.1c0.1,0.1,0.2,0.1,0.2,0.1l0,0c0.8,0.5,3.1,2.1,4,4.3
	c1.1,2.6,0.4,4.3,0.4,4.3s-1,2.5-4.3,2.7c-2.8,0.2-4,1.4-4.2,1.7l10.8,6.3c4.6,2.7,10.4,1.1,13.1-3.4L52,48.1
	c-0.4-0.1-2-0.6-4.5,0.6c-2.9,1.4-5-0.3-5-0.3s-1.4-1.1-1.7-4c-0.2-2.3,1-4.8,1.4-5.7l0,0c0,0,0-0.1,0.1-0.2
	c0.1-0.1,0.1-0.2,0.1-0.2l0,0c0.5-0.8,2.1-3.1,4.3-4c2.6-1.1,4.3-0.4,4.3-0.4s2.5,1,2.7,4.3c0.2,2.8,1.4,4,1.7,4.2l6.6-11.2
	C64.5,26.7,63,20.9,58.4,18.2z"/>
</svg>
